<svg width="14" height="15" viewBox="0 0 14 15" fill="none" xmlns="http://www.w3.org/2000/svg">
<g clip-path="url(#clip0_1123_5244)">
<path d="M5.51961 2.41789C5.12908 2.02737 4.49592 2.02737 4.10539 2.41789C3.71487 2.80842 3.71487 3.44158 4.10539 3.83211L5.51961 2.41789ZM9.1875 7.5L9.89461 8.20711C10.2851 7.81658 10.2851 7.18342 9.89461 6.79289L9.1875 7.5ZM4.10539 11.1679C3.71487 11.5584 3.71487 12.1916 4.10539 12.5821C4.49592 12.9726 5.12908 12.9726 5.51961 12.5821L4.10539 11.1679ZM4.10539 3.83211L8.48039 8.20711L9.89461 6.79289L5.51961 2.41789L4.10539 3.83211ZM8.48039 6.79289L4.10539 11.1679L5.51961 12.5821L9.89461 8.20711L8.48039 6.79289Z" fill="#96ACB3"/>
</g>
<defs>
<clipPath id="clip0_1123_5244">
<rect width="10.5" height="10.5" fill="white" transform="translate(1.75 2.25)"/>
</clipPath>
</defs>
</svg>
