<svg width="16" height="16" viewBox="0 0 16 16" fill="none" xmlns="http://www.w3.org/2000/svg">
<g clip-path="url(#clip0_1013_58168)">
<path d="M7.99949 2.42856C8.9073 2.42856 9.64558 3.16685 9.64558 4.07466C9.64558 4.97974 8.9073 5.71802 7.99949 5.71802C7.09167 5.71802 6.35339 4.97974 6.35339 4.07466C6.35339 3.16685 7.09167 2.42856 7.99949 2.42856ZM7.99949 8.0477C10.1925 8.0477 11.9753 6.26489 11.9753 4.07466C11.9753 1.88169 10.1925 0.098877 7.99949 0.098877C5.80652 0.098877 4.02644 1.88169 4.02644 4.07466C4.02644 6.26489 5.80652 8.0477 7.99949 8.0477ZM9.6073 11.2907C10.4167 11.1047 11.196 10.7848 11.9151 10.3336C12.4593 9.99185 12.6233 9.27271 12.2815 8.72856C11.937 8.18169 11.2206 8.01763 10.6737 8.36216C9.04675 9.38481 6.95222 9.38481 5.32253 8.36216C4.77839 8.01763 4.05925 8.18169 3.71745 8.72856C3.37566 9.27271 3.53972 9.99185 4.08386 10.3336C4.803 10.7848 5.5823 11.1047 6.39167 11.2907L4.16863 13.511C3.71472 13.9649 3.71472 14.7032 4.16863 15.1571C4.39831 15.384 4.69363 15.4989 4.99167 15.4989C5.28972 15.4989 5.58777 15.384 5.81745 15.1571L7.99949 12.975L10.1843 15.1571C10.6382 15.6137 11.3737 15.6137 11.8303 15.1571C12.2843 14.7032 12.2843 13.9649 11.8303 13.511L9.6073 11.2907Z" fill="#96ACB3"/>
</g>
<defs>
<clipPath id="clip0_1013_58168">
<rect width="15.4" height="15.4" fill="white" transform="translate(0.296875 0.0991211)"/>
</clipPath>
</defs>
</svg>
