<svg width="16" height="16" viewBox="0 0 16 16" fill="none" xmlns="http://www.w3.org/2000/svg">
<g clip-path="url(#clip0_1013_58173)">
<path fill-rule="evenodd" clip-rule="evenodd" d="M2.55928 3.30737H0.874519C0.393154 3.30737 0.296875 3.52997 0.296875 3.77536C0.296875 4.2137 0.868051 6.38762 2.95636 9.2628C4.34856 11.2263 6.31004 12.2907 8.09495 12.2907C9.16587 12.2907 9.29836 12.0543 9.29836 11.6471V10.1631C9.29836 9.69027 9.39981 9.5959 9.7389 9.5959C9.98881 9.5959 10.4172 9.71864 11.4167 10.6653C12.5591 11.7874 12.7474 12.2907 13.3899 12.2907H15.0747C15.5561 12.2907 15.7967 12.0543 15.6579 11.5878C15.506 11.1228 14.9606 10.4482 14.2368 9.64852C13.8441 9.19269 13.2551 8.70182 13.0767 8.45634C12.8268 8.14078 12.8982 8.0005 13.0767 7.72003C13.0767 7.72003 15.1293 4.87988 15.3435 3.91569C15.4506 3.56501 15.3435 3.30737 14.834 3.30737H13.1492C12.7209 3.30737 12.5234 3.52997 12.4162 3.77536C12.4162 3.77536 11.5595 5.82658 10.3458 7.159C9.9531 7.54467 9.77461 7.66741 9.5604 7.66741C9.45332 7.66741 9.29831 7.54467 9.29831 7.19408V3.91569C9.29831 3.49489 9.17401 3.30737 8.81697 3.30737H6.16947C5.9018 3.30737 5.74077 3.50264 5.74077 3.68775C5.74077 4.08661 6.34763 4.17861 6.41019 5.30063V7.73758C6.41019 8.27185 6.31192 8.36873 6.09776 8.36873C5.52662 8.36873 4.1373 6.30833 3.3133 3.95072C3.15184 3.49248 2.98985 3.30737 2.55928 3.30737V3.30737Z" fill="#96ACB3"/>
</g>
<defs>
<clipPath id="clip0_1013_58173">
<rect width="15.4" height="15.4" fill="white" transform="translate(0.296875 0.0991211)"/>
</clipPath>
</defs>
</svg>
